Patient4_TMGait_0pt6_01_right_40_GRF.mot
version=1
nRows=52
nColumns=19
inDegrees=no
endheader
time	F1x	F1y	F1z	M1x	M1y	M1z	F2x	F2y	F2z	M2x	M2y	M2z	EC1x	EC1y	EC1z	EC2x	EC2y	EC2z
48.1	2.2582	728.3688	51.512	-260.2059	-43.8006	701.8127	1.2103	-12.7089	3.3749	-3.6765	-5.31	-15.8247	-0.0592	0.0182	-0.0073	-0.0462	0.0165	0.9585
48.112	5.1602	725.6846	52.8042	-259.0407	-44.2207	695.7825	0.40299	-7.2684	2.4262	-2.0068	-3.5736	-9.2411	-0.0592	0.0182	-0.0073	-0.0462	0.0165	0.9585
48.124	7.9366	723.7673	54.0915	-257.9507	-44.5411	690.2283	-0.22092	-2.6827	1.5147	-0.5634	-2.0107	-3.7149	-0.0592	0.0182	-0.0073	-0.0462	0.0165	0.9585
48.136	10.4476	723.0194	55.2979	-257.0752	-44.7367	685.6823	-0.66113	0.8121	0.74608	0.56653	-0.75642	0.48056	-0.0592	0.0182	-0.0073	-0.0462	0.0165	0.9585
48.148	12.6485	723.6015	56.4059	-256.4933	-44.8208	682.401	-0.95844	3.2416	0.15277	1.3788	0.16758	3.3897	-0.0592	0.0182	-0.0073	-0.0462	0.0165	0.9585
48.16	14.5855	725.435	57.4181	-256.2129	-44.806	680.3699	-1.145	4.7516	-0.26313	1.9094	0.7853	5.1933	-0.0592	0.0182	-0.0073	-0.0462	0.0165	0.9585
48.172	16.3478	728.257	58.3534	-256.1789	-44.7097	679.3849	-1.2675	5.5401	-0.5253	2.208	1.16	6.1408	-0.0592	0.0182	-0.0073	-0.0462	0.0165	0.9585
48.184	18.0275	731.7179	59.2095	-256.3006	-44.5297	679.1424	-1.3491	5.7667	-0.66776	2.3139	1.3584	6.4184	-0.0592	0.0182	-0.0073	-0.0462	0.0165	0.9585
48.196	19.6875	735.4797	59.9833	-256.4832	-44.2675	679.3422	-1.4354	5.5643	-0.72741	2.2554	1.4539	6.1971	-0.0592	0.0182	-0.0073	-0.0462	0.0165	0.9585
48.208	21.3749	739.2948	60.6567	-256.6535	-43.9138	679.7705	-1.5273	4.9757	-0.73995	2.0349	1.4998	5.5335	-0.0592	0.0182	-0.0073	-0.0462	0.0165	0.9585
48.22	23.1035	743.0382	61.2392	-256.7693	-43.4868	680.3218	-1.649	4.0068	-0.73047	1.6398	1.5322	4.4574	-0.0592	0.0182	-0.0073	-0.0462	0.0165	0.9585
48.232	24.8677	746.6852	61.7513	-256.8152	-43.016	680.9838	-1.7683	2.6033	-0.71334	1.0393	1.5562	2.8979	-0.0592	0.0182	-0.0073	-0.0462	0.0165	0.9585
48.244	26.6446	750.2443	62.2321	-256.7849	-42.5446	681.7702	-1.8686	0.71265	-0.69086	0.2071	1.566	0.79973	-0.0592	0.0182	-0.0073	-0.0462	0.0165	0.9585
48.256	28.3966	753.6949	62.7109	-256.6668	-42.1085	682.6648	-1.866	-1.6983	-0.66327	-0.86468	1.5302	-1.8807	-0.0592	0.0182	-0.0073	-0.0462	0.0165	0.9585
48.268	30.0892	756.893	63.1989	-256.4146	-41.7258	683.5357	-1.6824	-4.5158	-0.62196	-2.1222	1.3979	-5.0006	-0.0592	0.0182	-0.0073	-0.0462	0.0165	0.9585
48.28	31.6885	759.5021	63.6878	-255.9206	-41.4034	684.0818	-1.169	-7.4257	-0.55036	-3.4198	1.0864	-8.221	-0.0592	0.0182	-0.0073	-0.0462	0.0165	0.9585
48.292	33.1742	760.9714	64.1592	-255.0071	-41.1317	683.7841	-0.18655	-9.7726	-0.41768	-4.4656	0.49788	-10.8096	-0.0592	0.0182	-0.0073	-0.0462	0.0165	0.9585
48.304	34.5522	760.6931	64.5772	-253.4835	-40.8787	682.0669	1.4553	-10.5028	-0.18117	-4.7872	-0.48653	-11.6048	-0.0592	0.0182	-0.0073	-0.0462	0.0165	0.9585
48.316	35.8792	758.2117	64.9044	-251.2164	-40.5959	678.466	3.8751	-8.045	0.19877	-3.6876	-1.9576	-8.8284	-0.0592	0.0182	-0.0073	-0.0462	0.0165	0.9585
48.328	37.2629	753.296	65.0861	-248.1605	-40.2039	672.699	7.13	-0.31862	0.76604	-0.24117	-3.974	-0.14894	-0.0592	0.0182	-0.0073	-0.0462	0.0165	0.9585
48.34	38.858	745.8615	65.0417	-244.3387	-39.5876	664.6121	11.0663	15.1954	1.5408	6.6653	-6.4784	17.2628	-0.0592	0.0182	-0.0073	-0.0462	0.0165	0.9585
48.352	40.8126	735.7406	64.6479	-239.7539	-38.5972	653.9975	15.2477	41.1117	2.5133	18.1897	-9.2524	46.3292	-0.0592	0.0182	-0.0073	-0.0462	0.0165	0.9585
48.364	43.1781	722.3907	63.751	-234.2833	-37.085	640.3618	18.7847	79.5951	3.6048	35.2805	-11.8058	89.4698	-0.0592	0.0182	-0.0073	-0.0462	0.0165	0.9585
48.376	45.853	704.6985	62.1511	-227.6084	-34.9158	622.7743	20.2369	131.3857	4.6286	58.2508	-13.2923	147.4996	-0.0592	0.0182	-0.0073	-0.0462	0.0165	0.9585
48.388	48.5096	681.007	59.6266	-219.2159	-32.0112	599.903	17.6966	194.6102	5.2838	86.2413	-12.5552	218.3298	-0.0592	0.0182	-0.0073	-0.0462	0.0165	0.9585
48.4	50.6684	649.4444	55.9564	-208.5107	-28.3458	570.261	9.8383	263.9176	4.971	116.8202	-8.3777	296.0089	-0.0592	0.0182	-0.0073	-0.0462	0.0165	0.9585
48.412	51.7582	608.4995	51.0395	-194.9993	-24.0227	532.6903	-1.8791	331.5293	2.6707	146.4583	-0.35885	371.8379	-0.0592	0.0182	-0.0073	-0.0462	0.0165	0.9585
48.424	51.2825	557.6367	45.0119	-178.4865	-19.32	486.8373	-14.4011	390.4567	-1.9976	172.0508	10.4846	437.7352	-0.0592	0.0182	-0.0073	-0.0462	0.0165	0.9585
48.436	48.9136	497.7207	38.313	-159.2035	-14.7046	433.5413	-25.5881	438.5348	-8.4472	192.6295	22.5461	491.0282	-0.0592	0.0182	-0.0073	-0.0462	0.0165	0.9585
48.448	44.6135	430.9106	31.5221	-137.7895	-10.6571	374.6977	-34.3675	477.6471	-15.3483	209.0827	33.9167	533.6954	-0.0592	0.0182	-0.0073	-0.0462	0.0165	0.9585
48.46	38.5627	360.3617	25.1627	-115.202	-7.5364	313.0176	-40.5268	511.1223	-21.7087	222.946	43.4241	569.4976	-0.0592	0.0182	-0.0073	-0.0462	0.0165	0.9585
48.472	31.1609	289.7649	19.5542	-92.5922	-5.4668	251.6166	-44.4882	542.1241	-26.9084	235.6679	50.6073	602.0657	-0.0592	0.0182	-0.0073	-0.0462	0.0165	0.9585
48.484	22.9786	222.9378	14.8319	-71.1745	-4.3694	193.7131	-46.8161	573.0954	-30.9482	248.3549	55.7383	634.1713	-0.0592	0.0182	-0.0073	-0.0462	0.0165	0.9585
48.496	14.8144	163.258	10.9832	-52.041	-3.9728	142.1142	-48.0278	605.829	-34.1559	261.7789	59.4254	667.8202	-0.0592	0.0182	-0.0073	-0.0462	0.0165	0.9585
48.508	7.4887	113.0081	7.9397	-35.9376	-3.9499	98.694	-48.5357	640.8813	-36.9658	276.1639	62.3424	703.6735	-0.0592	0.0182	-0.0073	-0.0462	0.0165	0.9585
48.52	1.6427	73.0731	5.5919	-23.1571	-3.998	64.1487	-48.6998	677.341	-39.7487	291.1037	65.052	740.8268	-0.0592	0.0182	-0.0073	-0.0462	0.0165	0.9585
48.532	-2.4308	43.0754	3.8017	-13.5823	-3.9053	38.142	-48.7924	713.351	-42.6857	305.7862	67.8752	777.331	-0.0592	0.0182	-0.0073	-0.0462	0.0165	0.9585
48.544	-4.7107	21.8476	2.4481	-6.8346	-3.5701	19.6761	-48.9703	746.7722	-45.7274	319.3014	70.8343	810.9209	-0.0592	0.0182	-0.0073	-0.0462	0.0165	0.9585
48.556	-5.4047	7.8862	1.4161	-2.4232	-2.9709	7.4764	-49.2585	775.6776	-48.6554	330.8435	73.7215	839.5457	-0.0592	0.0182	-0.0073	-0.0462	0.0165	0.9585
48.568	-4.9589	-0.40906	0.65949	0.17195	-2.2224	0.18012	-49.5421	798.4673	-51.3121	339.7508	76.3218	861.4966	-0.0592	0.0182	-0.0073	-0.0462	0.0165	0.9585
48.58	-3.9521	-4.5016	0.15793	1.4286	-1.4966	-3.4649	-49.6647	813.9339	-53.4599	345.546	78.3158	875.4912	-0.0592	0.0182	-0.0073	-0.0462	0.0165	0.9585
48.592	-2.7795	-5.7785	-0.12142	1.7935	-0.89725	-4.6467	-49.4177	821.4722	-55.002	348.0082	79.5076	880.8916	-0.0592	0.0182	-0.0073	-0.0462	0.0165	0.9585
48.604	-1.6849	-5.3682	-0.25303	1.6289	-0.4396	-4.3379	-48.6398	821.2424	-55.8577	347.2381	79.7506	877.8667	-0.0592	0.0182	-0.0073	-0.0462	0.0165	0.9585
48.616	-0.7885	-4.1056	-0.27791	1.2034	-0.13312	-3.2734	-47.2623	814.1004	-56.0903	343.6307	79.0835	867.3118	-0.0592	0.0182	-0.0073	-0.0462	0.0165	0.9585
48.628	-0.12233	-2.569	-0.25226	0.69929	0.059558	-1.9595	-45.2875	801.534	-55.7427	337.8368	77.566	850.7984	-0.0592	0.0182	-0.0073	-0.0462	0.0165	0.9585
48.64	0.33116	-1.0956	-0.19745	0.222	0.16123	-0.68946	-42.7869	785.4178	-54.9065	330.6678	75.3312	830.2836	-0.0592	0.0182	-0.0073	-0.0462	0.0165	0.9585
48.652	0.60771	0.14629	-0.13857	-0.17779	0.20705	0.38956	-39.8945	767.8253	-53.6452	323.0136	72.5046	807.9289	-0.0592	0.0182	-0.0073	-0.0462	0.0165	0.9585
48.664	0.7571	1.0902	-0.093692	-0.4815	0.23037	1.2165	-36.7072	750.785	-52.0592	315.7344	69.2375	785.8312	-0.0592	0.0182	-0.0073	-0.0462	0.0165	0.9585
48.676	0.81604	1.7602	-0.060307	-0.69638	0.24056	1.8063	-33.3483	736.054	-50.2313	309.5666	65.6658	765.8037	-0.0592	0.0182	-0.0073	-0.0462	0.0165	0.9585
48.688	0.81465	2.2022	-0.048574	-0.83698	0.25403	2.1946	-29.8755	724.9723	-48.2817	305.0581	61.9334	749.2038	-0.0592	0.0182	-0.0073	-0.0462	0.0165	0.9585
48.7	0.78138	2.4778	-0.043861	-0.92163	0.26477	2.4443	-26.354	718.4099	-46.3374	302.5441	58.183	736.9295	-0.0592	0.0182	-0.0073	-0.0462	0.0165	0.9585
48.712	0.72935	2.6461	-0.050545	-0.96975	0.2817	2.614	-22.8345	716.6848	-44.5222	302.126	54.5555	729.3202	-0.0592	0.0182	-0.0073	-0.0462	0.0165	0.9585
